<?xml version="1.0" encoding="UTF-8"?>
<svg id="Calque_1" xmlns="http://www.w3.org/2000/svg" version="1.1" viewBox="0 0 1024 1024">
  <!-- Generator: Adobe Illustrator 29.5.1, SVG Export Plug-In . SVG Version: 2.1.0 Build 141)  -->
  <defs>
    <style>
      .st0 {
        fill: #b76d45;
      }

      .st1 {
        fill: #fbfcfb;
      }

      .st2 {
        fill: #ceaf89;
      }
    </style>
  </defs>
  <path class="st0" d="M652,542c-2.41,20.93-8.82,41.68-17.82,60.68-1.49,3.15-6.88,9.53-6.04,12.6,1.45,5.35,30.96,25.5,37.19,28.89,41.41,22.54,109.51,25.98,136.19-20.15,21.47-37.13,2.55-69.58-32.84-86.19-61.13-28.69-159.88-35.31-168.66-120.34-11.45-110.85,120-128.64,198.95-94.95,11.45,4.88,25.53,12.16,33.01,21.99-1.24,7.19,1.89,47.24-.42,50.53-.68.97-1.98,1.06-3.07,1.04-3.12-.05-13.61-11.3-17.02-14.07-33.03-26.78-77.11-43.32-119.9-31.95-54.52,14.49-55.61,74.31-6.62,99.47,57.08,29.31,153.99,35.06,174.76,107.24,16.77,58.29-13.32,113.05-69.2,133.23-64.96,23.47-137.47,6.31-185.16-42.95-11.17,9.66-21.18,20.66-33.64,29.15-40.97,27.92-101.42,30.75-142.05.61-36.5-27.08-40.68-81.92-15.49-118.14,14.35-20.63,38.15-33.2,57.57-48.17-7.2-9.47-14.45-17.63-18.77-28.99-18.29-48.01,20.84-96.55,71.42-88.42,58.71,9.44,67.34,75.81,24.08,111.87-4.16,3.47-13.03,8.41-16.04,11.96-.87,1.03-1.83,1.81-1.33,3.37l67.53,69.57c1.89.6,1.11-.31,1.58-1.14,4.24-7.47,8.13-17.78,11.05-25.95,2.43-6.79,3.36-14.81,7.23-20.77h33.5ZM507.74,429.24c-15.76,2.53-23.85,18.06-21.5,33.02.95,6.04,14.96,29.31,20.31,29.79,4.08.37,21.41-14.65,24.43-18.57,15.51-20.18,3.49-48.52-23.23-44.23ZM494.74,538.15c-2.96.6-21.68,14.05-25.21,16.88-36.5,29.23-47.91,81.47,3.49,101.45,40.37,15.7,78.9-3.92,104.91-34.84l-80.65-83.49c-.86-.31-1.68-.18-2.54,0Z"/>
  <path class="st2" d="M250,465c-2.13-4.9-5.5-8.66-8.6-12.9-33.78-46.04-73.98-89.88-106.8-136.2-1.05-1.48-2.7-3-2.6-4.9h74.5l115.08,150.07,2.99-1.01,108.93-149.06h74.5c-2.82,6.04-7.59,11.57-11.6,16.9-48.41,64.26-97.49,128.02-145.15,192.85.46,24.22-1,48.65-1.28,72.72-.4,33.5.38,67.05.04,100.54h-56c-.02-8.65.03-17.35,0-26,0-1.33,0-2.67,0-4-.02-7.65.01-15.35,0-23-.07-36.68,3.04-80.86.04-116.54-.12-1.45-.22-3.7-.95-4.88s-1.62-.34-2.1-.58c-.46-1.63-.62-2.38-1.54-3.94-3.89-6.61-23.87-31.93-29.46-37.06-.34-.32-.66-.68-1-1-1.56-4.5-5.52-8.8-9-12Z"/>
  <path class="st1" d="M292.04,525.45c-.17-2.43-.38-4.12-1.04-6.45-.27-.13-1.06.27-1.77-.21-3.67-2.52-21.65-26.78-24.71-31.85-.67-1.11-.18-3.2-.73-3.79-.58-.63-4.6.26-3.79-5.15,5.59,5.14,25.57,30.46,29.46,37.06.92,1.56,1.07,2.3,1.54,3.94.48.24,1.4-.54,2.1.58.73,1.18.83,3.43.95,4.88,2.99,35.68-.11,79.86-.04,116.54"/>
  <path class="st1" d="M259,477c-1.53-1.43-4.09-1.82-6.41-5.09-2.54-3.58-1.65-4.74-2.59-6.91,3.48,3.2,7.44,7.5,9,12Z"/>
  <path class="st1" d="M294,664c0,1.33,0,2.67,0,4"/>
  <rect class="st2" x="292.3" y="510.39" width="58.94" height="183.61"/>
  <path class="st2" d="M350.12,497.26l-46.12,43.69-158.15-210.28c1.82,2.31-11.57-15.68-10.86-16.24l55.43-.52,159.7,183.35Z"/>
</svg>